<svg width="76" height="61" viewBox="0 0 76 61" version="1.1" xmlns="http://www.w3.org/2000/svg" xmlns:xlink="http://www.w3.org/1999/xlink">
<title>Eraser</title>
<desc>Created using Figma</desc>
<g id="Canvas" transform="translate(-1226 96)">
<g id="Eraser" filter="url(#filter0_d)">
<g id="Group">
<g id="Intersect">
<use xlink:href="#path0_fill" transform="translate(1272.22 -94)" fill="#FFFFFF"/>
</g>
<g id="Rectangle 7">
<use xlink:href="#path1_fill" transform="translate(1208 -94)" fill="#2F384C"/>
</g>
</g>
<g id="Intersect">
<use xlink:href="#path2_fill" transform="translate(1272.22 -53)" fill="#0F182C" fill-opacity="0.3"/>
</g>
<g id="Rectangle 9">
<use xlink:href="#path3_fill" transform="translate(1208 -53)" fill="#0F182C" fill-opacity="0.3"/>
</g>
</g>
</g>
<defs>
<filter id="filter0_d" filterUnits="userSpaceOnUse" x="1226" y="-96" width="77" height="61" color-interpolation-filters="sRGB">
<feFlood flood-opacity="0" result="BackgroundImageFix"/>
<feColorMatrix in="SourceAlpha" type="matrix" values="0 0 0 0 0 0 0 0 0 0 0 0 0 0 0 0 0 0 255 0"/>
<feOffset dx="2" dy="4"/>
<feGaussianBlur stdDeviation="3"/>
<feColorMatrix type="matrix" values="0 0 0 0 0 0 0 0 0 0 0 0 0 0 0 0 0 0 0.25 0"/>
<feBlend mode="normal" in2="BackgroundImageFix" result="effect1_dropShadow"/>
<feBlend mode="normal" in="SourceGraphic" in2="effect1_dropShadow" result="shape"/>
</filter>
<path id="path0_fill" fill-rule="evenodd" d="M 0 49L 13.7793 49C 18.1975 49 21.7793 45.4183 21.7793 41L 21.7793 8C 21.7793 3.58173 18.1975 0 13.7793 0L 0 0L 0 49Z"/>
<path id="path1_fill" d="M 0 0L 64 0L 64 49L 0 49L 0 0Z"/>
<path id="path2_fill" fill-rule="evenodd" d="M 21.7791 0C 21.7791 4.41827 18.1974 8 13.7791 8L 0 8L 0 0L 21.7791 0Z"/>
<path id="path3_fill" d="M 0 0L 64.2208 0L 64.2208 8L 0 8L 0 0Z"/>
</defs>
</svg>
